<svg xmlns="http://www.w3.org/2000/svg" viewBox="0 0 183.24 68.56"><defs><style>.cls-1{fill:#010101;}.cls-2{fill:#faa51a;}</style></defs><title>logo-new</title><g id="Layer_2" data-name="Layer 2"><g id="Layer_1-2" data-name="Layer 1"><polygon class="cls-1" points="25.58 43.52 9.7 55.31 10.68 61.06 13.28 62.63 13.64 58.96 16.48 61.31 16.85 57.64 19.69 59.99 20.06 56.32 22.89 58.67 23.25 55.01 26.09 57.36 26.46 53.69 29.3 56.04 29.66 52.37 32.51 54.71 32.88 51.04 35.73 53.39 36.09 49.72 38.94 52.07 39.1 50.46 35.56 43.6 25.58 43.52"/><path class="cls-1" d="M34.84,41.6c-.11-.36-.2-.67-.27-1a35.39,35.39,0,0,1-5.73-3.4l-.24.1a1.67,1.67,0,0,1-1.24-.12l-3-1.6c-.22-.12-.53-1-.53-1h-7a1.55,1.55,0,0,1-.41-.48,8.85,8.85,0,0,0-7.78-4.79C5.37,29.31,1,33.6,1,33.6l7.79.06,2.55,4.49L8.71,42.6H.92S5.24,47,8.51,47c3.76,0,8.28-5.42,8.28-5.42Z"/><path class="cls-1" d="M0,18.43l3.35,3.22,6.5,1.85,16.3,8.7-1,1.94,3,1.6.49-.93c.76,1,3.28,2.59,5.79,3.89a7.8,7.8,0,0,1,.75-3.08L32.31,30a5,5,0,0,0-1-.21l.47-.88-.05-.09-2.92-1.56-1,1.94L15.68,22.76A2.37,2.37,0,0,1,14,23.6a1.89,1.89,0,0,1-1.69-1.06,2.92,2.92,0,0,1-.3-1.37v-.38l-.55-.29L6.29,16.14l-4.54-1Z"/><path class="cls-1" d="M13.63,21.13a1.57,1.57,0,0,0,.12.66c.28.54,1-.2,1.54-1.28,5.19-9.91,8.39-5,10.21-2.45.71,1,2.14.34,2.14.34l.49-.26,8,15.85a7.75,7.75,0,0,1,5.49-2.87l-8-15.82.92-.47s1.51-.91,1.32-2.12c-.21-1.36,4.11-3.63,5.21-4.45,0,0,0,0,0,0l.39.77h0a2,2,0,0,0,3.61-1.88L42,1.1A2,2,0,0,0,38.38,3l.52,1c-1.08.35-2.89.93-3.34.64-2-1.25-8.45,1.52-8.45,1.52C12.75,13.55,13.55,17.29,13.63,21.13Z"/><path class="cls-2" d="M39.37,33.42a6.25,6.25,0,0,0-2.68,8.41L48.46,65.18a6.24,6.24,0,0,0,11.09-5.73L47.78,36.1A6.25,6.25,0,0,0,39.37,33.42Zm16.56,28a2.24,2.24,0,1,1-3-1A2.25,2.25,0,0,1,55.93,61.45Z"/><path d="M75.86,19.15,70.65,35.56H67.48c-.36,0-.61-.23-.75-.7l-3-9.49c-.09-.32-.18-.64-.26-.95s-.15-.63-.2-1c-.06.32-.14.64-.22,1s-.17.65-.26,1l-3,9.46a.83.83,0,0,1-.85.7H56l-5.2-16.41h3.15a1.36,1.36,0,0,1,.74.2,1,1,0,0,1,.4.53l2.35,8.77c.12.48.22,1,.31,1.41s.17.91.23,1.37c.12-.46.25-.91.38-1.37s.27-.93.42-1.41l2.72-8.8a1.05,1.05,0,0,1,.38-.53,1.1,1.1,0,0,1,.68-.21h1.74a1.17,1.17,0,0,1,.71.21,1,1,0,0,1,.4.53L68,28.65c.14.48.27,1,.39,1.42l.36,1.38a28.05,28.05,0,0,1,.59-2.8l2.42-8.77a1,1,0,0,1,.4-.53,1.19,1.19,0,0,1,.68-.2Z"/><path d="M81.8,27.85A7.43,7.43,0,0,0,82.25,30a4.25,4.25,0,0,0,.93,1.52,3.6,3.6,0,0,0,1.36.9,4.92,4.92,0,0,0,1.76.3A5.39,5.39,0,0,0,88,32.52,7.93,7.93,0,0,0,89.17,32l.91-.5a1.5,1.5,0,0,1,.76-.22.8.8,0,0,1,.73.36l1.14,1.44a6.62,6.62,0,0,1-1.47,1.29,7.71,7.71,0,0,1-1.71.83,8.76,8.76,0,0,1-1.8.44,12.37,12.37,0,0,1-1.79.13,8.72,8.72,0,0,1-3.18-.57,6.88,6.88,0,0,1-2.56-1.68,7.65,7.65,0,0,1-1.71-2.75,10.55,10.55,0,0,1-.63-3.8,8.94,8.94,0,0,1,.55-3.16A7.55,7.55,0,0,1,80,21.27a7.3,7.3,0,0,1,2.48-1.74,8.06,8.06,0,0,1,3.3-.64,7.78,7.78,0,0,1,2.86.5,6.25,6.25,0,0,1,2.26,1.44,6.83,6.83,0,0,1,1.48,2.34,8.65,8.65,0,0,1,.54,3.16,2.52,2.52,0,0,1-.2,1.21.77.77,0,0,1-.73.31Zm7.54-2.38A4.84,4.84,0,0,0,89.12,24a3.43,3.43,0,0,0-.65-1.19A3,3,0,0,0,87.38,22a3.76,3.76,0,0,0-1.55-.3,3.64,3.64,0,0,0-2.69,1,4.74,4.74,0,0,0-1.26,2.77Z"/><path d="M99.81,27.85a8.13,8.13,0,0,0,.45,2.18,4.55,4.55,0,0,0,.93,1.52,3.64,3.64,0,0,0,1.37.9,4.91,4.91,0,0,0,1.75.3,5.45,5.45,0,0,0,1.66-.23,7.79,7.79,0,0,0,1.21-.49l.92-.5a1.49,1.49,0,0,1,.75-.22.83.83,0,0,1,.74.36l1.14,1.44a6.45,6.45,0,0,1-1.48,1.29,7.64,7.64,0,0,1-1.7.83,8.69,8.69,0,0,1-1.81.44,12.24,12.24,0,0,1-1.78.13,8.81,8.81,0,0,1-3.19-.57,7,7,0,0,1-2.56-1.68A7.93,7.93,0,0,1,96.5,30.8a10.77,10.77,0,0,1-.62-3.8,9.16,9.16,0,0,1,.54-3.16A7.71,7.71,0,0,1,98,21.27a7.5,7.5,0,0,1,2.48-1.74,8.14,8.14,0,0,1,3.31-.64,7.81,7.81,0,0,1,2.86.5,6.25,6.25,0,0,1,2.26,1.44,6.83,6.83,0,0,1,1.48,2.34,8.87,8.87,0,0,1,.53,3.16,2.55,2.55,0,0,1-.19,1.21.79.79,0,0,1-.74.31Zm7.54-2.38a4.54,4.54,0,0,0-.22-1.45,3.41,3.41,0,0,0-.64-1.19,3,3,0,0,0-1.1-.81,4.17,4.17,0,0,0-4.24.68,4.81,4.81,0,0,0-1.26,2.77Z"/><path d="M118.74,11.79V25.4h.74a1.57,1.57,0,0,0,.63-.1,1.3,1.3,0,0,0,.47-.43l4.08-5a1.94,1.94,0,0,1,.57-.51,1.62,1.62,0,0,1,.81-.17h3.61l-5.1,6.09a4.37,4.37,0,0,1-1.18,1.11,3.17,3.17,0,0,1,.6.56c.17.21.34.44.5.68l5.47,8h-3.57a2,2,0,0,1-.8-.15,1.28,1.28,0,0,1-.56-.55l-4.19-6.23a1.25,1.25,0,0,0-.46-.48,1.87,1.87,0,0,0-.72-.11h-.9v7.52h-3.95V11.79Z"/><path d="M135,27.85a7.43,7.43,0,0,0,.45,2.18,4.25,4.25,0,0,0,.93,1.52,3.68,3.68,0,0,0,1.36.9,5,5,0,0,0,1.76.3,5.34,5.34,0,0,0,1.65-.23A7.93,7.93,0,0,0,142.4,32l.91-.5a1.5,1.5,0,0,1,.76-.22.83.83,0,0,1,.74.36l1.13,1.44a6.4,6.4,0,0,1-1.47,1.29,7.64,7.64,0,0,1-1.7.83,9,9,0,0,1-1.81.44,12.27,12.27,0,0,1-1.79.13,8.72,8.72,0,0,1-3.18-.57,7,7,0,0,1-2.56-1.68,7.65,7.65,0,0,1-1.71-2.75,10.55,10.55,0,0,1-.63-3.8,9.17,9.17,0,0,1,.55-3.16,7.55,7.55,0,0,1,1.56-2.57,7.4,7.4,0,0,1,2.48-1.74,8.1,8.1,0,0,1,3.3-.64,7.87,7.87,0,0,1,2.87.5,6.3,6.3,0,0,1,2.25,1.44,6.83,6.83,0,0,1,1.48,2.34,8.65,8.65,0,0,1,.54,3.16,2.69,2.69,0,0,1-.19,1.21.8.8,0,0,1-.74.31Zm7.54-2.38a4.84,4.84,0,0,0-.22-1.45,3.27,3.27,0,0,0-.65-1.19,3,3,0,0,0-1.09-.81,3.76,3.76,0,0,0-1.55-.3,3.64,3.64,0,0,0-2.69,1,4.74,4.74,0,0,0-1.26,2.77Z"/><path d="M153.7,21.16a10.17,10.17,0,0,1,1.05-.92,7.08,7.08,0,0,1,1.17-.72,6.24,6.24,0,0,1,1.32-.46,6.7,6.7,0,0,1,1.53-.17,5.82,5.82,0,0,1,2.39.46,4.63,4.63,0,0,1,1.73,1.28,5.45,5.45,0,0,1,1.06,2,8.43,8.43,0,0,1,.36,2.52V35.56h-3.95V25.11a3.51,3.51,0,0,0-.69-2.32,2.58,2.58,0,0,0-2.1-.83,4.13,4.13,0,0,0-1.92.47A7,7,0,0,0,154,23.69V35.56h-4V19.15h2.41a1,1,0,0,1,1,.72Z"/><path d="M183.24,11.79V35.56h-2.42a.93.93,0,0,1-1-.72l-.34-1.58a8.39,8.39,0,0,1-2.28,1.84,6.1,6.1,0,0,1-3,.7,5.36,5.36,0,0,1-2.46-.56,5.42,5.42,0,0,1-1.93-1.62A7.93,7.93,0,0,1,168.57,31a13.47,13.47,0,0,1-.44-3.59,11.2,11.2,0,0,1,.5-3.39,8.37,8.37,0,0,1,1.42-2.72,6.57,6.57,0,0,1,2.23-1.8,6.42,6.42,0,0,1,2.91-.65,5.91,5.91,0,0,1,2.35.43,6.24,6.24,0,0,1,1.75,1.17V11.79Zm-4,11.55a3.8,3.8,0,0,0-1.47-1.15,4.2,4.2,0,0,0-1.7-.34,3.7,3.7,0,0,0-1.62.34,3.22,3.22,0,0,0-1.23,1,4.94,4.94,0,0,0-.78,1.73,9.49,9.49,0,0,0-.28,2.47,10.64,10.64,0,0,0,.24,2.44,4.63,4.63,0,0,0,.66,1.63,2.51,2.51,0,0,0,1.06.92,3.45,3.45,0,0,0,1.39.28,3.93,3.93,0,0,0,2.09-.52,6.25,6.25,0,0,0,1.64-1.45Z"/><path d="M72.07,60.62V44.43h2.18v2.06A4.92,4.92,0,0,1,76,44.84a4.79,4.79,0,0,1,2.42-.62,5,5,0,0,1,2.2.49A5.75,5.75,0,0,1,82.35,46,5.85,5.85,0,0,1,83.5,47.9a6.37,6.37,0,0,1,.41,2.26,7.19,7.19,0,0,1-.38,2.35,5.64,5.64,0,0,1-1.07,1.89,5.14,5.14,0,0,1-1.65,1.27,4.62,4.62,0,0,1-2.09.48,4.56,4.56,0,0,1-2.47-.66,5.17,5.17,0,0,1-1.72-1.73v6.86Zm2.46-9.06a4.57,4.57,0,0,0,.58,1,4,4,0,0,0,.81.79,4.34,4.34,0,0,0,1,.53,2.91,2.91,0,0,0,1,.19,3,3,0,0,0,1.41-.32,3.23,3.23,0,0,0,1.09-.88,4.32,4.32,0,0,0,.71-1.26,4.22,4.22,0,0,0,.26-1.45,4,4,0,0,0-1-2.72,3.8,3.8,0,0,0-1.17-.84,3.49,3.49,0,0,0-1.43-.3,3.22,3.22,0,0,0-1,.17,4,4,0,0,0-1,.49,3.37,3.37,0,0,0-.79.71,2.49,2.49,0,0,0-.48.89Z"/><path d="M86.42,55.93V44.43h2.29V47a5.65,5.65,0,0,1,1.59-1.94,3.39,3.39,0,0,1,2.08-.74h.36l.26,0V46.5a5.58,5.58,0,0,0-2.53.65,3.63,3.63,0,0,0-1.59,1.74v7Z"/><path d="M94,50.18a6.22,6.22,0,0,1,.42-2.27A5.49,5.49,0,0,1,95.64,46a6.16,6.16,0,0,1,8.73,0,5.49,5.49,0,0,1,1.22,1.9,6.26,6.26,0,0,1,.42,2.27,6.33,6.33,0,0,1-.42,2.29,5.58,5.58,0,0,1-1.22,1.9,5.92,5.92,0,0,1-1.9,1.29,6,6,0,0,1-2.47.49,6,6,0,0,1-2.49-.49,5.83,5.83,0,0,1-1.88-1.29,5.56,5.56,0,0,1-1.21-1.9A6.33,6.33,0,0,1,94,50.18Zm2.51,0a4.26,4.26,0,0,0,.27,1.54A3.69,3.69,0,0,0,97.51,53a3.49,3.49,0,0,0,1.12.82,3.15,3.15,0,0,0,1.37.29,3.24,3.24,0,0,0,1.39-.29A3.44,3.44,0,0,0,102.5,53a4,4,0,0,0,.74-1.23,4.63,4.63,0,0,0,0-3.06,3.93,3.93,0,0,0-.74-1.24,3.44,3.44,0,0,0-1.11-.83A3.39,3.39,0,0,0,100,46.3a3.18,3.18,0,0,0-1.36.3,3.62,3.62,0,0,0-1.1.84,3.88,3.88,0,0,0-.75,1.24A4.12,4.12,0,0,0,96.51,50.21Z"/><path d="M111,56.23a6.3,6.3,0,0,1-.26,1.89,4.55,4.55,0,0,1-.75,1.49,3.31,3.31,0,0,1-2.73,1.23,5.16,5.16,0,0,1-1.41-.19,5.62,5.62,0,0,1-1.29-.52l.53-1.8a3.24,3.24,0,0,0,.77.33,3.13,3.13,0,0,0,.88.13,1.53,1.53,0,0,0,1.34-.64,3.13,3.13,0,0,0,.46-1.84V44.56H111ZM108.5,40H111v2.54H108.5Z"/><path d="M113.47,50.22a6.2,6.2,0,0,1,.43-2.31A5.91,5.91,0,0,1,115.13,46a5.77,5.77,0,0,1,1.92-1.3,6.28,6.28,0,0,1,2.51-.48,6.15,6.15,0,0,1,2.47.49A6.33,6.33,0,0,1,123.92,46a5.48,5.48,0,0,1,1.19,1.87,6,6,0,0,1,.41,2.23,3.94,3.94,0,0,1,0,.5c0,.15,0,.28,0,.38h-9.38a3.8,3.8,0,0,0,.37,1.39,3.86,3.86,0,0,0,.79,1.07,3.36,3.36,0,0,0,1.09.69,3.53,3.53,0,0,0,1.29.25,4,4,0,0,0,1-.13,3.51,3.51,0,0,0,.89-.35,3.31,3.31,0,0,0,.72-.56,2.5,2.5,0,0,0,.48-.73l2.11.59a4.81,4.81,0,0,1-2,2.13,6.39,6.39,0,0,1-3.26.82,6.2,6.2,0,0,1-2.48-.48,5.66,5.66,0,0,1-3.15-3.17A6,6,0,0,1,113.47,50.22Zm2.54-.9h7.08a4.09,4.09,0,0,0-.37-1.36,3.57,3.57,0,0,0-.77-1.05,3.49,3.49,0,0,0-1.1-.67,3.72,3.72,0,0,0-2.63,0,3.56,3.56,0,0,0-1.09.67,3.37,3.37,0,0,0-.76,1.05A4.33,4.33,0,0,0,116,49.32Z"/><path d="M127.12,50.16a6.46,6.46,0,0,1,.41-2.29A5.73,5.73,0,0,1,128.74,46a6,6,0,0,1,1.91-1.29,6.35,6.35,0,0,1,2.51-.48,6,6,0,0,1,3.12.79,4.9,4.9,0,0,1,2,2.08l-2.4.74a3,3,0,0,0-1.14-1.13,3.18,3.18,0,0,0-1.59-.4,3.31,3.31,0,0,0-1.38.28,3.35,3.35,0,0,0-1.1.8,3.66,3.66,0,0,0-.74,1.22,4.37,4.37,0,0,0-.27,1.56,4.15,4.15,0,0,0,.28,1.55,4.09,4.09,0,0,0,.76,1.24,3.37,3.37,0,0,0,1.12.83,3.15,3.15,0,0,0,1.35.29A3.48,3.48,0,0,0,134,54a3.53,3.53,0,0,0,.82-.34,3.33,3.33,0,0,0,.65-.51,2.07,2.07,0,0,0,.41-.6l2.42.69a4.67,4.67,0,0,1-1.94,2.13,6.14,6.14,0,0,1-3.23.83,6,6,0,0,1-2.48-.49,5.77,5.77,0,0,1-1.92-1.3,5.86,5.86,0,0,1-1.21-1.91A6.06,6.06,0,0,1,127.12,50.16Z"/><path d="M139.66,44.43h1.73v-4.6h2.53v4.6h2.73v2.2h-2.73v9.3h-2.53v-9.3h-1.73Z"/><path d="M147.78,54.53l1-1.63a7.6,7.6,0,0,0,4.27,1.48,3.27,3.27,0,0,0,1.77-.42,1.35,1.35,0,0,0,.65-1.19,1.12,1.12,0,0,0-.73-1.07,14,14,0,0,0-2.33-.71c-.73-.18-1.35-.36-1.87-.54a5.38,5.38,0,0,1-1.27-.61,2,2,0,0,1-.71-.81,2.63,2.63,0,0,1-.23-1.14,3.25,3.25,0,0,1,.36-1.55,3.59,3.59,0,0,1,1-1.15,4.38,4.38,0,0,1,1.45-.72,6.52,6.52,0,0,1,1.8-.25,7.94,7.94,0,0,1,2.47.4,7.72,7.72,0,0,1,2.12,1.09l-1,1.46a6,6,0,0,0-3.6-1.23,3,3,0,0,0-1.59.39,1.32,1.32,0,0,0-.65,1.22,1.17,1.17,0,0,0,.13.59,1.27,1.27,0,0,0,.44.42,3.71,3.71,0,0,0,.8.31c.33.1.73.21,1.21.32.81.19,1.51.38,2.09.57a5.69,5.69,0,0,1,1.44.67,2.49,2.49,0,0,1,.85.9,2.78,2.78,0,0,1,.26,1.25,3.12,3.12,0,0,1-.34,1.47,3.21,3.21,0,0,1-.95,1.13,4.54,4.54,0,0,1-1.5.71,7.17,7.17,0,0,1-2,.26,10,10,0,0,1-2.86-.43,9.76,9.76,0,0,1-1.34-.51A6.15,6.15,0,0,1,147.78,54.53Z"/><path d="M160.19,55.93V53.27h2.17v2.66Z"/><path d="M165.35,42.54V39.87h2.46v2.67Zm0,13.39V44.43h2.46v11.5Z"/><path d="M170.33,50.18a6.22,6.22,0,0,1,.42-2.27A5.46,5.46,0,0,1,172,46a6.22,6.22,0,0,1,1.9-1.3,6.16,6.16,0,0,1,6.83,1.3,5.49,5.49,0,0,1,1.22,1.9,6.26,6.26,0,0,1,.42,2.27,6.33,6.33,0,0,1-.42,2.29,5.58,5.58,0,0,1-1.22,1.9,5.92,5.92,0,0,1-1.9,1.29,6.5,6.5,0,0,1-4.95,0A5.76,5.76,0,0,1,172,54.37a5.68,5.68,0,0,1-1.2-1.9A6.33,6.33,0,0,1,170.33,50.18Zm2.5,0a4.26,4.26,0,0,0,.27,1.54,3.72,3.72,0,0,0,.74,1.21,3.34,3.34,0,0,0,1.11.82,3.18,3.18,0,0,0,1.37.29,3.24,3.24,0,0,0,1.39-.29,3.44,3.44,0,0,0,1.11-.83,4,4,0,0,0,.74-1.23,4.47,4.47,0,0,0,0-3.06,3.93,3.93,0,0,0-.74-1.24,3.44,3.44,0,0,0-1.11-.83,3.39,3.39,0,0,0-1.39-.29,3.18,3.18,0,0,0-1.36.3,3.62,3.62,0,0,0-1.1.84,4.28,4.28,0,0,0-.75,1.24A4.12,4.12,0,0,0,172.83,50.21Z"/></g></g></svg>